<svg width="103" height="133" viewBox="0 0 103 133" fill="none" xmlns="http://www.w3.org/2000/svg">
<path d="M81.6165 83.5569L101.902 83.9538L79.5627 54.7029L99.6408 55.062L50.7969 0L3.90601 54.81L23.0013 55.5975L0 83.3553L18.1755 86.0265L1.6569 111.636L4.2462 112.266C5.2416 112.505 36.0171 118.61 52.6806 119.227C73.6155 120.002 98.532 112.537 99.6156 112.26L102.331 111.56L81.6165 83.5569Z" fill="#9373ED"/>
<path d="M95.9303 109.255C88.8239 110.911 69.2246 116.071 52.6871 115.435C39.7217 114.937 13.709 110.521 7.73655 109.179L24.5072 83.1537L7.16956 80.6337L30.7568 52.1703L11.8064 51.3954L50.7971 5.75818L91.073 51.1182L71.7887 50.7717L94.1411 80.0226L73.9811 79.632L95.9303 109.255Z" fill="#9373ED"/>
<path d="M52.687 120.147V119.221V115.441V105.708L69.067 89.3277L66.3958 86.6628L52.687 100.378V81.5535H48.907V92.5596L35.2171 78.8697L32.527 81.522L48.907 97.902V119.379C49.978 119.36 51.4774 120.242 52.687 120.147Z" fill="white"/>
<path d="M62.5589 127.206C60.0704 127.287 52.6805 128.466 52.6805 128.466V115.147C51.4772 115.242 49.9778 114.36 48.9005 114.354V128.466H25.874V132.246L48.9887 132C48.9887 132 51.7607 131.962 52.6868 131.893C55.2068 131.716 60.1838 131.023 62.6912 130.986C68.0084 130.904 76.9796 132.246 76.9796 132.246V128.466C76.9796 128.466 67.9013 127.023 62.5589 127.206Z" fill="#9373ED"/>
</svg>
