<svg width="1214" height="1253" viewBox="0 0 1214 1253" fill="none" xmlns="http://www.w3.org/2000/svg">
<path d="M597.021 1250.77C710.574 1263.66 821.181 1218.51 921.425 1163.63C1027.26 1105.7 1136.19 1037.72 1186.51 928.062C1236.87 818.334 1203.28 693.49 1192.35 573.255C1180.81 446.138 1212.89 293.377 1120.82 204.973C1028.09 115.931 871.194 181.409 747.56 146.162C625.386 111.331 530.408 -8.96298 403.721 0.532016C270.642 10.506 137.502 85.69 64.4354 197.362C-6.60363 305.934 33.4084 447.273 26.6404 576.843C20.5624 693.195 -30.1897 817.632 26.7253 919.296C83.0783 1019.96 216.987 1037.03 316.724 1095C411.049 1149.83 488.616 1238.47 597.021 1250.77Z" fill="#F9F9F9"/>
</svg>
