<svg width="780" height="824" viewBox="0 0 780 824" fill="none" xmlns="http://www.w3.org/2000/svg">
<path d="M387 823.702C476.696 825.237 571.719 802.906 637.763 742.195C700.662 684.376 704.486 590.155 729.823 508.562C751.774 437.873 789.481 368.864 776.31 296.026C763.318 224.18 710.899 167.65 658.906 116.392C610.074 68.251 553.271 29.09 487.143 10.945C421.771 -6.99203 354.225 0.444973 287.931 14.6C217.095 29.725 142.715 44.797 91.012 95.525C37.51 148.019 4.93202 221.621 0.662016 296.453C-3.45098 368.528 45.904 428.946 68.065 497.653C93.889 577.718 82.866 673.566 141.693 733.705C203.857 797.256 298.114 822.181 387 823.702Z" fill="#EBEBEB"/>
</svg>
