<svg width="131" height="131" viewBox="0 0 131 131" fill="none" xmlns="http://www.w3.org/2000/svg">
<path d="M94.1562 49.5344V40.9375C94.1562 24.9719 81.4656 12.2812 65.5 12.2812C49.5344 12.2812 36.8438 24.9719 36.8438 40.9375V49.5344C25.3813 51.5813 16.375 61.4062 16.375 73.6875C16.375 87.1969 27.4281 98.25 40.9375 98.25H61.4062V122.812C61.4062 125.269 63.0438 126.906 65.5 126.906C67.9562 126.906 69.5938 125.269 69.5938 122.812V98.25H90.0625C103.572 98.25 114.625 87.1969 114.625 73.6875C114.625 61.4062 105.619 51.5813 94.1562 49.5344ZM93.3375 72.05C88.0156 80.2375 79.0094 85.15 69.1844 85.9688C69.1844 86.3781 69.1844 86.7875 69.1844 87.1969V94.1562C69.1844 96.6125 67.5469 98.25 65.0906 98.25C62.6344 98.25 60.9969 96.6125 60.9969 94.1562V87.1969C60.9969 82.6937 58.95 78.6 54.8562 76.1438C53.2188 74.5063 50.7625 73.6875 47.8969 73.6875H40.9375C38.4813 73.6875 36.8438 72.05 36.8438 69.5938C36.8438 67.1375 38.4813 65.5 40.9375 65.5H47.8969C51.9906 65.5 56.4938 66.7281 59.7688 69.1844C60.1781 69.5938 60.5875 70.0031 61.4062 70.4125V36.8438C61.4062 34.3875 63.0438 32.75 65.5 32.75C67.9562 32.75 69.5938 34.3875 69.5938 36.8438V77.7812C76.5531 76.9625 82.6938 73.2781 86.7875 67.5469C88.0156 65.5 90.4719 65.0906 92.5188 66.3188C94.1562 67.5469 94.5656 70.0031 93.3375 72.05Z" fill="#734CE3"/>
</svg>
