<svg id="Layer_1" data-name="Layer 1" xmlns="http://www.w3.org/2000/svg" viewBox="0 0 51.61 39.05"><defs><style>.cls-1{fill:#c3affc;}</style></defs><path class="cls-1" d="M53.11,31.16v.08A11.09,11.09,0,0,0,33.6,38.43a10.29,10.29,0,0,0,.18,1.94H11.4A9.2,9.2,0,1,1,11.4,22c.27,0,.54,0,.8,0a15.95,15.95,0,0,1,31.52,0h.19A9.2,9.2,0,0,1,53.11,31.16Z" transform="translate(-2.2 -8.48)"/><path class="cls-1" d="M44.9,29.71a8.91,8.91,0,1,0,8.9,8.91A8.92,8.92,0,0,0,44.9,29.71Zm4.57,12a.23.23,0,0,1,0,.34L48.33,43.2a.25.25,0,0,1-.34,0L44.9,40.11,41.81,43.2a.24.24,0,0,1-.33,0l-1.15-1.15a.25.25,0,0,1,0-.34l3.09-3.09-3.09-3.09a.24.24,0,0,1,0-.33l1.15-1.15a.24.24,0,0,1,.33,0l3.09,3.08L48,34.05a.25.25,0,0,1,.34,0l1.14,1.15a.22.22,0,0,1,0,.33l-3.09,3.09Z" transform="translate(-2.2 -8.48)"/></svg>